<?xml version="1.0" encoding="utf-8"?>
<!-- Generator: Adobe Illustrator 22.1.0, SVG Export Plug-In . SVG Version: 6.00 Build 0)  -->
<svg version="1.1" id="Layer_1" xmlns="http://www.w3.org/2000/svg" xmlns:xlink="http://www.w3.org/1999/xlink" x="0px" y="0px"
	 viewBox="0 0 100 100" style="enable-background:new 0 0 100 100;" xml:space="preserve">
<style type="text/css">
	.icon-users_0{fill:none;stroke:#000000;stroke-width:5;stroke-miterlimit:10;}
	.icon-users_1{fill:none;stroke:#000000;stroke-width:5;stroke-linecap:round;stroke-linejoin:round;stroke-miterlimit:10;}
</style>
<path class="icon-users_0" d="M19.9,36.9c-4.8,0-8.7,3.9-8.7,8.7s3.9,8.7,8.7,8.7s8.7-3.9,8.7-8.7S24.7,36.9,19.9,36.9z"/>
<path class="icon-users_0" d="M50,19.6c-7.2,0-13,5.8-13,13s5.8,13,13,13s13-5.8,13-13S57.2,19.6,50,19.6z"/>
<path class="icon-users_0" d="M80.4,37.1c-4.7,0-8.6,3.9-8.6,8.6s3.9,8.6,8.6,8.6s8.6-3.9,8.6-8.6S85.2,37.1,80.4,37.1z"/>
<path class="icon-users_1" d="M97.5,80.6c0-9.7-7.9-17.6-17.6-17.6c-3.2,0-6.1,0.6-8.8,2.3"/>
<path class="icon-users_1" d="M75.8,80.4c0-14.4-11.7-26-26-26s-26,11.7-26,26"/>
<path class="icon-users_1" d="M28.6,65.1c-2.7-1.7-5.2-2.1-8.4-2.1c-9.7,0-17.6,7.9-17.6,17.6"/>
</svg>
