<?xml version="1.0" encoding="utf-8"?>
<!-- Generator: Adobe Illustrator 22.1.0, SVG Export Plug-In . SVG Version: 6.00 Build 0)  -->
<svg version="1.1" id="Capa_1" xmlns="http://www.w3.org/2000/svg" xmlns:xlink="http://www.w3.org/1999/xlink" x="0px" y="0px"
	 viewBox="0 0 100 100" style="enable-background:new 0 0 100 100;" xml:space="preserve">
<style type="text/css">
	.icon-settings_0{fill:none;stroke:#000000;stroke-width:5;stroke-linecap:round;stroke-linejoin:round;stroke-miterlimit:10;}
</style>
<path class="icon-settings_0" d="M94.8,85.5C92.3,83,40.7,32.2,40.7,32.2s-1.3-1.2-1.9-4s3.2-15.7-8.2-23.1C20.6-1.3,9.2,6.4,9.2,6.4l14,8.2
	c0,0-0.7,4.7-2.5,7.5S15,27.3,15,27.3L2.7,20.6c0,0-1,9.3,6.1,14.5c6,4.4,9.5,4.4,11.5,4.4c2,0,5.2-1,7.4-0.8
	c1.6,0.2,3.8,1.4,5.2,2.8C34.3,43,85.7,95,86.1,95.4c1.4,1.4,5.9,3.5,9.5-0.1S97.2,87.9,94.8,85.5z"/>
<path class="icon-settings_0" d="M48.4,59.5c-2.3,2.3-3.6,5.2-3.9,8.4c-2.8,3-4.9,6-24,26.6c-3.8,3.8-10.7,3.8-14.5,0L5.6,94
	c-1.9-1.9-3-4.5-3-7.3c0-2.7,1.1-5.3,2.9-7.1L32.7,56c3.2-0.2,6.1-1.6,8.4-3.9"/>
<path class="icon-settings_0" d="M52.2,42.3l25.3-25.3c0.4-0.4,0.6-1,0.6-1.6v-5.2l15-7.5l4.1,4.1l-7.5,15h-5.2c-0.6,0-1.1,0.2-1.6,0.6
	L57.7,47.8"/>
</svg>
